<svg width="40" height="42" viewBox="0 0 40 42" fill="none" xmlns="http://www.w3.org/2000/svg">
<path d="M20 0.645142C8.95161 0.645142 0 9.59675 0 20.6451C0 31.6935 8.95161 40.6451 20 40.6451C31.0484 40.6451 40 31.6935 40 20.6451C40 9.59675 31.0484 0.645142 20 0.645142ZM29.2742 14.25C28.9758 17.4113 27.6694 25.0887 27.0081 28.629C26.7258 30.129 26.1774 30.629 25.6452 30.6774C24.4839 30.7822 23.6048 29.9113 22.4758 29.1693C20.7177 28.0161 19.7177 27.2984 18.0161 26.1693C16.0403 24.8709 17.3226 24.1532 18.4435 22.9839C18.7419 22.6774 23.8548 18.0242 23.9516 17.6048C23.9677 17.5484 23.9758 17.3548 23.8548 17.25C23.7339 17.1451 23.5645 17.1855 23.4435 17.2097C23.2661 17.2473 20.4543 19.1048 15.0081 22.7822C14.2124 23.3306 13.4892 23.5968 12.8387 23.5806C12.121 23.5645 10.75 23.1774 9.72581 22.8468C8.47581 22.4435 7.47581 22.2258 7.56452 21.5322C7.60753 21.172 8.10484 20.8037 9.05645 20.4274C14.8844 17.8898 18.7715 16.215 20.7177 15.4032C26.2742 13.0968 27.4274 12.6935 28.1774 12.6774C28.3468 12.6774 28.7097 12.7177 28.9516 12.9113C29.1095 13.0501 29.2101 13.2427 29.2339 13.4516C29.2775 13.7153 29.291 13.9832 29.2742 14.25Z" fill="#313131"/>
</svg>
