<svg width="40" height="46" viewBox="0 0 40 46" fill="none" xmlns="http://www.w3.org/2000/svg">
<path d="M34.0089 8.66962C30.2679 4.91962 25.2857 2.85712 19.9911 2.85712C9.0625 2.85712 0.169643 11.75 0.169643 22.6785C0.169643 26.1696 1.08036 29.5803 2.8125 32.5893L0 42.8571L10.5089 40.0982C13.4018 41.6785 16.6607 42.5089 19.9821 42.5089H19.9911C30.9107 42.5089 40 33.616 40 22.6875C40 17.3928 37.75 12.4196 34.0089 8.66962ZM19.9911 39.1696C17.0268 39.1696 14.125 38.375 11.5982 36.875L11 36.5178L4.76786 38.1518L6.42857 32.0714L6.03571 31.4464C4.38393 28.8214 3.51786 25.7946 3.51786 22.6785C3.51786 13.5982 10.9107 6.20533 20 6.20533C24.4018 6.20533 28.5357 7.91962 31.6429 11.0357C34.75 14.1518 36.6607 18.2857 36.6518 22.6875C36.6518 31.7768 29.0714 39.1696 19.9911 39.1696ZM29.0268 26.8303C28.5357 26.5803 26.0982 25.3839 25.6429 25.2232C25.1875 25.0535 24.8571 24.9732 24.5268 25.4732C24.1964 25.9732 23.25 27.0803 22.9554 27.4196C22.6696 27.75 22.375 27.7946 21.8839 27.5446C18.9732 26.0893 17.0625 24.9464 15.1429 21.6518C14.6339 20.7768 15.6518 20.8393 16.5982 18.9464C16.7589 18.616 16.6786 18.3303 16.5536 18.0803C16.4286 17.8303 15.4375 15.3928 15.0268 14.4018C14.625 13.4375 14.2143 13.5714 13.9107 13.5535C13.625 13.5357 13.2946 13.5357 12.9643 13.5357C12.6339 13.5357 12.0982 13.6607 11.6429 14.1518C11.1875 14.6518 9.91071 15.8482 9.91071 18.2857C9.91071 20.7232 11.6875 23.0803 11.9286 23.4107C12.1786 23.741 15.4196 28.741 20.3929 30.8928C23.5357 32.25 24.7679 32.366 26.3393 32.1339C27.2946 31.991 29.2679 30.9375 29.6786 29.7768C30.0893 28.616 30.0893 27.625 29.9643 27.4196C29.8482 27.1964 29.5179 27.0714 29.0268 26.8303Z" fill="#313131"/>
</svg>
